<svg xmlns="http://www.w3.org/2000/svg" viewBox="0 0 640 480"><rect width="640" height="480" fill="#eef9f6"/><circle cx="320" cy="188" r="84" fill="#e0ad91"/><path d="M208 432c21-99 82-146 112-146s91 47 112 146H208z" fill="#fff"/><path d="M236 150c20-68 150-70 168 4 7 28-2 66-15 92-18-28-42-44-69-44s-51 16-69 44c-14-28-22-64-15-96z" fill="#293241"/><path d="M252 306h136l28 126H224l28-126z" fill="#11a97d"/><rect x="268" y="186" width="104" height="30" rx="15" fill="#ffffff" opacity=".75"/><circle cx="290" cy="201" r="7" fill="#123047"/><circle cx="350" cy="201" r="7" fill="#123047"/></svg>
