<svg xmlns="http://www.w3.org/2000/svg" viewBox="0 0 640 480"><rect width="640" height="480" fill="#f4f8fb"/><circle cx="320" cy="190" r="84" fill="#eebaa8"/><path d="M210 432c20-98 80-144 110-144s90 46 110 144H210z" fill="#fff"/><path d="M218 170c12-84 190-92 204 4 5 34-10 82-28 108-16-54-39-84-74-84s-58 30-74 84c-20-30-34-76-28-112z" fill="#2f2528"/><path d="M258 306h124l36 126H222l36-126z" fill="#11a97d"/><circle cx="288" cy="196" r="7" fill="#123047"/><circle cx="352" cy="196" r="7" fill="#123047"/></svg>
