<svg xmlns="http://www.w3.org/2000/svg" viewBox="0 0 640 480"><rect width="640" height="480" fill="#e8f5ff"/><circle cx="320" cy="184" r="86" fill="#d6a181"/><path d="M210 432c18-96 80-146 110-146s92 50 110 146H210z" fill="#fff"/><path d="M234 150c18-72 156-74 174 0 8 32-2 70-16 96-20-30-44-46-72-46s-52 16-72 46c-14-26-22-64-14-96z" fill="#1f2937"/><path d="M268 304h104l30 128H238l30-128z" fill="#0f5ca8"/><path d="M288 226c18 14 46 14 64 0" stroke="#7b5141" stroke-width="10" fill="none" stroke-linecap="round"/></svg>
