<svg xmlns="http://www.w3.org/2000/svg" viewBox="0 0 640 480"><rect width="640" height="480" fill="#e8f5ff"/><circle cx="320" cy="190" r="86" fill="#f7c9b8"/><path d="M214 430c18-96 78-142 106-142s88 46 106 142H214z" fill="#fff"/><path d="M228 154c22-70 162-76 184 4 8 30-4 72-18 92-16-34-40-55-74-55s-58 21-74 55c-16-26-26-62-18-96z" fill="#123047"/><path d="M264 306l56 64 56-64 38 124H226l38-124z" fill="#0f5ca8"/><circle cx="286" cy="196" r="8" fill="#123047"/><circle cx="354" cy="196" r="8" fill="#123047"/></svg>
