<svg xmlns="http://www.w3.org/2000/svg" viewBox="0 0 640 480"><rect width="640" height="480" fill="#e8f5ff"/><circle cx="320" cy="188" r="82" fill="#f3bba8"/><path d="M212 430c19-96 79-140 108-140s89 44 108 140H212z" fill="#fff"/><path d="M230 158c14-78 166-78 180 0 4 26-2 62-16 90-24-34-48-50-74-50s-50 16-74 50c-14-28-20-64-16-90z" fill="#4a2c2a"/><path d="M264 302l56 46 56-46 44 128H220l44-128z" fill="#0f5ca8"/><path d="M284 226c20 18 52 18 72 0" stroke="#9b5c51" stroke-width="10" fill="none" stroke-linecap="round"/></svg>
